<svg xmlns="http://www.w3.org/2000/svg" viewBox="3300 2900 13400 14250" role="img" aria-label="Legado Enterprise"><style>.lg-hand{fill:#254576}.lg-arrow{fill:#1F3A63}.lg-word{fill:#162A4E}.lg-sub{fill:#6E7782}.lg-bar{fill:#5E86BF}.b3{fill:#3D6299}.b4{fill:#1F3A63}</style><defs><mask id="lgHolesE" maskUnits="userSpaceOnUse" x="0" y="0" width="20000" height="20000"><rect x="0" y="0" width="20000" height="20000" fill="#fff"/><path fill="#000" d="M14510.59 14405.02c83.42,1186.34 1428.61,1090.24 1352.07,-158.91 -72.64,-1185.62 -1439.95,-1090.81 -1352.07,158.91z"/><path fill="#000" d="M12366.65 13482.37c-44.66,392.9 -8.29,1001.18 -11.77,1419.42 -2.52,302.85 106.74,317.68 404.86,279.47 224.84,-28.82 355.92,-100.31 475.24,-220.83 130.39,-131.7 194.18,-265.26 216.99,-509.28 69.74,-746.04 -519.18,-1100.34 -1085.32,-968.78z"/><path fill="#000" d="M10111.1 14508.77l704.75 -2.02 -340.11 -799.37c-66.33,68.09 -350.1,690.31 -364.64,801.39z"/><path fill="#000" d="M10586.27 16472.2c217.56,32.59 346.64,-8.78 308.54,-241.58 -83.01,-66.64 -138.05,-87.47 -292.74,-70.05l-15.8 311.63z"/><path fill="#000" d="M11554.73 16446.78c474.79,68.97 333.13,-413.62 11.06,-265.99l-11.06 265.99z"/><path fill="#000" d="M9485.79 16445.53c445.45,75.15 360.36,-383.53 2.82,-272.05l-2.82 272.05z"/></mask></defs><path class="lg-hand" d="M11960.84 9632.53c-88.05,9.57 -195.47,86.02 -286.02,134.16 -144.47,76.81 -771.3,342.89 -829.08,402.39 265.09,40.84 508.57,-27.21 735.33,-112.59 114.2,-43.01 529.05,-202.78 579.75,-276.37 278.65,-93.82 1606.02,-1044.26 1668.25,-1144.76 -535.45,-40.53 -727.06,105.46 -1076.2,336.58 -151.36,100.2 -279.54,173.18 -449.41,272.57 -202.51,118.5 26.09,120.98 -239.71,301.36 -67.98,46.14 -58.7,24.69 -102.91,86.66zm-1695.51 871.67c-338.96,-5.54 -677.76,-94.92 -1012.78,-142.84 -499.13,-71.4 -580.72,-17.35 -1010.14,90.53 152.63,-146.67 180.86,-127.93 362.12,-241.23 332.29,-86.63 627.25,-98.41 983.84,-121.24 436.12,-8.43 973,-109.91 1358.51,-237.65 266.06,-88.16 961.57,-357.73 1028.94,-546.52 -172.73,-372.61 -762.57,-380.43 -1234.69,-318.48 -436.56,57.29 -1072.76,191.99 -1504.09,57.26 -388.98,-121.49 -752.69,-344.59 -1179.17,-487.49 -211.71,-70.94 -455.62,-118.17 -702.69,-127.07 -181.08,-6.52 -623.34,-5.89 -741.95,93.74 -142.87,-12.03 -403.66,103.48 -525.23,166.44 -361.07,182.3 -970.4,602.25 -1163.55,912.97 59.75,145.15 155.4,260.71 245.89,374.37 640.19,804.05 1684.59,1363.46 2679.31,1653.36 1163.02,338.95 2058.51,331.35 3196.42,-31.06 129.78,-41.32 773.67,-319.65 821.4,-375.89 190.84,-68.52 972.17,-550.87 1053.21,-653.47 147.28,-63.73 452.92,-336.32 594.51,-452.05 86.38,-70.6 493.75,-442.64 540.51,-451.7 58.08,-106.48 337.48,-365.49 429.51,-451.31l407.07 -473.76c-99.64,-84.21 -283.66,-150.28 -452.71,-161.23 -298.08,-19.29 -735.76,368.09 -978.18,536.46l-127.73 98.55c-3.74,3.74 -8.42,8.63 -11.98,12.43l-35.15 42.31c-72.11,16.96 -635.65,419.21 -787.35,508.35 -137.5,80.8 -274.21,158.85 -414.12,241.08 -152.77,89.8 -287.78,124.71 -444.37,213.09 -528.64,161.66 -729.95,273.77 -1375.36,272.05z"/><path class="lg-bar b1" d="M8426.02 7648.77c-35.38,124.11 -14.34,701.74 -8.77,866.69 74.38,52.66 415.53,169.85 526.9,216.22 233.91,97.39 241.69,167.59 551.51,188.64l5.86 -1415.36c-375.28,58.46 -671.67,114.27 -1075.5,143.81z"/><path class="lg-bar b2" d="M10049.14 7296.93l-2.53 1598.9c189.65,18.11 821.73,-97.36 1061.46,-124.13l12.19 -1880.41c-23.83,3.61 -1046.44,389.64 -1071.12,405.64z"/><path class="lg-bar b3" d="M11657.54 7465.48l0.23 1365.9c72.65,53.89 171.23,83.47 256.2,134.99 90.21,54.71 146.45,120.97 224.17,166.3 88.84,-21.77 526.44,-287.29 585.07,-346.42l8.21 -964.02 -3.66 -1783.95c-152.27,67.32 -358.23,205.55 -526.97,305.81 -156.1,92.76 -380.77,197.36 -536.34,298.45l-6.91 822.94z"/><path class="lg-bar b4" d="M14292.4 6387.46l-7.05 -1648.86c-124.54,28.46 -761.45,691.25 -975.46,885.67l-72.32 70.52 -2.59 515.98 3.09 530.8 -3.46 1760.54c216.29,-33.74 286.35,-63.41 528.24,-61.33 204.35,1.76 337.17,-12.61 527.55,-31.74l-0.07 -1290.08 2.07 -731.5z"/><g class="lg-arrow"><path class="" d="M10215.27 6626.6c49.13,19.47 30.92,38.57 120.23,66.73 84.54,26.64 55.73,15.03 85.64,64.61 303.02,-56.73 818.77,-308.96 1102.8,-435.27 178.91,-79.55 346.59,-173.57 499.54,-268.26 130.05,-80.52 369.2,-195.33 467.91,-287.24 157.83,-82.12 343.77,-229.87 488.28,-336.06 678.82,-498.79 1108.76,-1071.23 1279.61,-1200.06 132.56,87.42 289.55,274.35 411.25,337.4l5.22 -1394.53c-222.92,15.14 -796.03,130.24 -1061.28,180.63 -165.97,31.52 -262.09,40.83 -322.88,83.7l351.35 279.39c3.69,3.33 9.09,8.63 12.4,11.73l24.4 24.8c-38.15,58.43 -53.51,58.92 -97.65,113.5l-283.13 325.4c-147.28,160.11 -267.46,275.37 -407.37,427.14 -74.87,81.22 -139.41,117.74 -214.99,191.62 -85.59,83.68 -115.01,128.28 -203.64,202.35 -83.93,70.15 -401.93,320.3 -443.5,389.87 -98.92,47.22 -324.41,237.48 -425.89,319.75 -143.44,116.28 -294.4,207.19 -451.2,315.48l-867.44 531.99c-4.56,2.82 -10.18,6.01 -14.63,9.02 -4.53,3.07 -10,6.94 -14.28,10.11 -26.08,19.34 -23.69,17.14 -40.75,36.2z"/><path class="" d="M10421.14 6757.94c-29.91,-49.58 -1.1,-37.97 -85.64,-64.61 -89.31,-28.16 -71.1,-47.26 -120.23,-66.73 -98.2,8.66 -316.55,148.91 -421.44,198.95 -140.85,67.19 -325.64,125.32 -452.67,195.35 257.7,-18.84 841.52,-169.32 1079.98,-262.96z"/></g><g class="lg-word" mask="url(#lgHolesE)"><path class="" d="M12366.65 13482.37c566.14,-131.56 1155.06,222.74 1085.32,968.78 -22.81,244.02 -86.6,377.58 -216.99,509.28 -119.32,120.52 -250.4,192.01 -475.24,220.83 -298.12,38.21 -407.38,23.38 -404.86,-279.47 3.48,-418.24 -32.89,-1026.52 11.77,-1419.42zm-576.4 -92.79c5.42,3.5 13.26,6.45 17.46,8.37 274.65,125.58 188.34,229.69 193.26,939.38 1.18,170.14 30.96,718.56 -47.02,830.71 -58.29,83.85 -80.36,39.18 -167.73,94.47 83.15,67.78 1133.6,40.85 1403.76,-52.86 858.5,-297.78 906.3,-1428.82 15.15,-1760.21 -306.67,-114.04 -871.04,-85.89 -1248.31,-82.63l-166.57 22.77z"/><path class="" d="M14510.59 14405.02c-87.88,-1249.72 1279.43,-1344.53 1352.07,-158.91 76.54,1249.15 -1268.65,1345.25 -1352.07,158.91zm1715.81 180.52c373.86,-1351.59 -1758.94,-1738.42 -2081.51,-520.89 -269.06,1015.49 894.7,1552.42 1638.78,1098.44 210.83,-128.63 361.46,-283.71 442.73,-577.55z"/><path class="" d="M8594.78 14405.02c46.08,45.06 42.35,27.98 124.53,57.39 58.07,20.78 83.24,33.66 109.73,70.76 46.63,65.3 80.11,500.08 -38.88,608.5 -200.28,182.52 -923.18,146.76 -1008.48,-646.45 -92.27,-857.96 479.67,-1260.15 1044.12,-997.52 279.49,130.05 242.54,344.78 336.87,379.04l-11.64 -457.99c-422.72,-99.81 -891.14,-140.14 -1258.57,57.2 -289.51,155.49 -541.73,464.87 -506,952.29 49.85,679.93 728.73,967.05 1281.48,887.79 260.18,-37.31 340.76,-105.97 539.79,-184.41 -2.09,-133.24 -32.14,-551.69 40.63,-636.38 33.63,-39.16 27.11,-21.79 68.44,-43.76l76.18 -46.46c-107.77,-41.65 -704.53,-48.99 -798.2,0z"/><path class="" d="M10111.1 14508.77c14.54,-111.08 298.31,-733.3 364.64,-801.39l340.11 799.37 -704.75 2.02zm-24.71 753.74c-138.98,-92.12 -268.49,-40.13 -181.49,-292.86 29.41,-85.44 109.19,-280.85 157.24,-349.62l813.94 5.87c41.14,123.72 109.01,243.35 153.9,369.66 90.12,253.57 -100.63,186.71 -161.78,290.96l803.61 -0.01c-70.45,-148.29 -88.1,97 -321.46,-454.56 -73.57,-173.86 -155.37,-336.87 -228.14,-515.22 -55.4,-135.76 -416.31,-970.81 -473.38,-1030.92 -92.62,49.52 -149.14,127.01 -268.26,174.92 -2.4,227.35 -290.59,766.24 -386.76,989.14 -483.34,1120.37 -393.03,601.06 -526.5,839.82 107.87,-2.05 551.65,16.85 619.08,-27.18z"/><path class="" d="M5576.85 13389.58c163.19,122.22 210.22,11.46 212.32,360.1l1.77 1174.64c-4.4,266.58 -39.82,238.88 -216.03,338.19 57.84,40.89 286.8,24.86 380.32,24.87 279.29,0.02 981.37,21.05 1168.15,-3.55l23.69 -418.95c-56.11,42.51 -55.42,95.54 -119.18,161.72 -43.12,44.75 -87.55,80.39 -159.31,110.47 -131.58,55.16 -327.45,55.29 -483.6,49.15 -210.52,-8.28 -240.72,-75.68 -241.27,-283.88 -0.42,-161.27 -10.7,-372.17 6.18,-527.37 86.51,-11.46 340.32,-14.07 423.25,3.91 127.42,27.61 136.79,90.74 169.62,162 27.02,58.63 -3.54,-0.89 24.89,46.87l22.5 28.52c34.54,-66.01 20.73,-119.47 20.84,-301.5 0.03,-52.38 2.47,-107.13 1.9,-158.79l-22.74 -148.39c-20.37,22.77 -10.48,7.74 -31.51,48.51l-47.14 111.99c-96.35,152.52 -477.98,109.99 -553.18,84.02 -45.5,-136.73 -10.74,-585.14 -10.01,-761.85 124.01,-44.26 453.51,-28.76 587.72,0.6 288.58,63.13 206.86,221.43 323.11,281.78l-9.84 -396.58c-113.75,-34.8 -1413.51,-21.61 -1472.45,13.52z"/><path class="" d="M3729.78 13118.8c159.2,116.25 262.13,-41.11 258.89,405.96 -1.71,236.19 41.17,1497.64 -43.82,1622.91 -42.37,62.44 -92.96,59.85 -161.62,88.64 -32.08,13.46 -32.11,13.74 -49.92,26.2 74.34,44.09 288.64,26.51 394.12,26.95l1203.16 0.21 64.29 -519.81c-154.22,85.78 -61.79,379.1 -545.44,398.38 -614.52,24.49 -478.35,84.21 -484.07,-1395.04 -1.37,-354.48 -62.53,-555.79 174.34,-623.75l94.74 -30.65 -122.11 -28.86c-147.57,-7.51 -726.57,-14.89 -782.56,28.86z"/></g><g class="lg-sub"><path class="" d="M11565.79 16180.79c322.07,-147.63 463.73,334.96 -11.06,265.99l11.06 -265.99zm-240.71 -77.4c138.1,116.49 96.01,145.72 95.69,355.08 -0.6,392.19 -9.06,239.7 -78.49,356.99l296.27 -4.09c-107.8,-156.16 -78.75,-70.67 -83.2,-311.48 121.71,2.59 127.46,53.65 263.5,210.57 58.72,67.75 171.95,159.21 308.88,86.49 -128.43,-62.94 -90.8,-39.09 -180.05,-124.86 -75.64,-72.69 -95.57,-88.58 -145.19,-168.49 93.33,-54.19 158.45,-48.54 188.94,-147.88 98.29,-320.32 -487.14,-276.6 -666.35,-252.33z"/><path class="" d="M9485.79 16445.53l2.82 -272.05c357.54,-111.48 442.63,347.2 -2.82,272.05zm-234.2 -340.78c127.29,100.16 93.26,75.19 94.42,353.72 0.86,207.35 37.94,243.32 -91.48,354.74l312.34 3.32c-62.16,-87.72 -85.94,8.4 -82.09,-305.81 251.73,-35.01 135.66,343.94 572.21,299.93 -78.51,-57.56 -109.2,-52.99 -188.07,-136.12 -60.24,-63.5 -78.33,-113.14 -141.59,-170.93 67.72,-42.38 157.65,-54.96 191.59,-147.04 115.08,-312.19 -499.19,-271.66 -667.33,-251.81z"/><path class="" d="M6053.69 16107.11c155.74,104.5 112.82,123.93 113.04,351.39 0.2,208.38 40.82,250.83 -90.63,354.43l236.4 1.51c-75.61,-82.24 -88.74,-62.84 -89.93,-219.15 -0.83,-108.16 5.07,-217.43 4.02,-326.01 109.73,66.84 215.83,203.74 303.34,292.19 69.53,70.28 88.77,93.75 146.23,146.39 63.78,58.42 79.24,98.5 159.65,118.22l11.25 -607.88c20.84,-100.86 28.48,-54.2 85.83,-119.68l-251.09 3.93c162.36,146.59 83.17,157.6 102.25,511.59 -80.39,-50.78 -236.33,-210.11 -323.11,-300.12 -113.83,-118.06 -154.58,-269.81 -407.25,-206.81z"/><path class="" d="M14046.28 16109.17c121.6,55.86 88.8,207.72 89.29,349.3 0.21,61.19 7.21,166.08 -0.53,221.86 -12.09,87.17 -40.31,81.4 -78.7,132.65l672.58 -2.82 17.56 -145c-76.39,24.85 -61.42,70.2 -193.39,89.23 -243.18,35.04 -329.77,-12.11 -278.48,-276.79 157,-16.36 251.41,5.31 351.25,56.18l0.95 -176.56 -83.35 47.61c-35.86,12.67 -41.75,11.27 -79.02,14.56 -58.43,5.15 -133.98,2.26 -197.63,1.42l16 -252.36c198.12,-23.58 297.43,-30.76 424.86,64.11l-10.59 -121.16c-108.28,-31.97 -535.09,-26.47 -650.8,-2.23z"/><path class="" d="M10602.07 16160.57c154.69,-17.42 209.73,3.41 292.74,70.05 38.1,232.8 -90.98,274.17 -308.54,241.58l15.8 -311.63zm-239.82 -56.35c117.36,97.27 90.76,71.2 89.46,354.26 -1.04,225.75 36.54,220.51 -89.43,354.42l309.03 -1.1c-114.09,-113.75 -86.95,-73.33 -83.77,-283.93 113.8,-8.75 257.29,1.44 351.12,-48.84 189.67,-101.62 224.56,-501.84 -576.41,-374.81z"/><path class="" d="M8232.45 16098.52c134.66,136.19 95.56,73.05 96.45,495.35 0.42,202.55 -11.95,107.35 -76.34,220.94l659.95 -3.27 17.71 -151.65c-81.19,46.87 -64.12,79.59 -198.66,96.6 -223.05,28.21 -347.27,-32.15 -255.73,-281.06 198.77,-23.2 211.73,6.55 341.65,51.98l3.26 -168.38c-118.83,61.52 -180.77,87.17 -358.92,51.81l11.83 -228.26c66.8,-31.36 187.32,-27.72 258.52,-19.63 127.13,14.43 96.54,40.22 171.47,63.22l-14.21 -132.91 -656.98 5.26z"/><path class="" d="M5058.05 16101.15c117.66,107.28 81.85,170.97 83.25,357.31 1.65,220.33 36.24,211.7 -82.18,356.15l650.43 -8.12c36.9,-56.46 34.12,-74.13 38.36,-147.57 -78.6,48.43 -64.93,81.28 -197.83,98.84 -316.25,41.77 -284.02,-84.05 -277.87,-283.83 153.66,-5.68 222.84,-21.13 356.93,43.41l-7.58 -151.86c-89.52,61.02 -204.75,58.87 -349.54,52.38l14.24 -243.79c207.73,-52.34 294.01,-19.29 428.73,57.13l-13.32 -135.08 -643.62 5.03z"/><path class="" d="M13117.22 16789.5c548.51,144.63 779.13,-207.26 406.19,-361.98 -106.15,-44.03 -415.6,-102.64 -258.48,-238.17 184.01,-158.73 385.87,83.44 385.89,83.46l-1.68 -149.92c-213.1,-59.33 -637.95,-56.85 -523.37,225.21 75.7,186.36 503.11,116.86 441.16,338.09 -40.41,87.52 -174,92.82 -265.51,75.21 -138.82,-26.69 -123.79,-72.85 -192.2,-139.95l8 168.05z"/><path class="" d="M7409.81 16813.65l328.44 3.75c-109.96,-125.37 -102.42,-47.07 -100.61,-291.04 0.9,-122.68 0.38,-242.32 5.84,-365.05 196.15,-9.71 174.75,-2.31 300.61,90.05l-8.91 -157.84 -723.74 5.81 -7.99 150.32c86.47,-79.12 145.36,-119.63 299.06,-76.67 4.46,125.27 2.87,251.09 4.15,376.55 2.12,208.58 7.73,162.7 -96.85,264.12z"/><path class="" d="M12429.53 16099.77c127.71,116.86 94.23,116.95 93.26,403.83 -1.14,335.2 -16.49,208.95 -94.22,312.96l320.32 -2.59c-64.79,-61.49 -90.82,-63.77 -90.82,-197.54l0.19 -340.31c5.95,-152.44 40.33,-107.28 95.32,-180.61l-324.05 4.26z"/></g></svg>